<?xml version="1.0" standalone="no"?>
<!DOCTYPE svg PUBLIC "-//W3C//DTD SVG 20010904//EN"
 "http://www.w3.org/TR/2001/REC-SVG-20010904/DTD/svg10.dtd">
<svg version="1.0" xmlns="http://www.w3.org/2000/svg"
 width="512.000000pt" height="512.000000pt" viewBox="0 0 512.000000 512.000000"
 preserveAspectRatio="xMidYMid meet">

<g transform="translate(0.000000,512.000000) scale(0.100000,-0.100000)"
fill="#000000" stroke="none">
<path d="M2104 4663 l-661 -448 691 -3 c380 -2 913 0 1185 4 l494 6 -441 441
-441 441 -83 3 -83 4 -661 -448z"/>
<path d="M1647 4030 l-427 -5 1643 -1643 1642 -1642 98 202 c122 254 159 391
137 508 -5 30 -209 625 -452 1323 l-442 1267 -886 -2 c-487 -2 -1077 -5 -1313
-8z"/>
<path d="M1087 3263 c-4 -351 -7 -942 -7 -1313 l0 -676 1268 -442 c697 -243
1292 -447 1322 -452 117 -22 259 17 510 138 l200 97 -1643 1643 -1644 1644 -6
-639z"/>
<path d="M4130 3763 c0 -5 176 -513 392 -1128 l392 -1120 0 -125 c0 -157 -29
-270 -109 -431 -31 -61 -66 -134 -79 -164 l-24 -53 182 60 c99 33 184 63 188
67 6 6 39 1625 38 1906 l-1 150 -450 390 c-545 472 -529 459 -529 448z"/>
<path d="M460 3019 l-445 -657 0 -86 1 -86 441 -442 441 -441 6 494 c4 272 6
805 4 1185 l-3 691 -445 -658z"/>
<path d="M1382 951 c18 -22 209 -243 423 -490 l390 -450 155 -1 c288 -1 1895
31 1901 38 4 4 34 89 67 188 l60 182 -53 -24 c-30 -13 -103 -48 -164 -79 -181
-90 -392 -133 -531 -107 -31 6 -553 184 -1160 396 -607 212 -1108 386 -1113
386 -5 0 6 -18 25 -39z"/>
</g>
</svg>
